<svg xmlns="http://www.w3.org/2000/svg" width="745" height="186" fill="none" style=""><rect id="backgroundrect" width="100%" height="100%" x="0" y="0" fill="none" stroke="none" class="" style=""/>







<g class="currentLayer" style=""><title>Layer 1</title><path fill-rule="evenodd" clip-rule="evenodd" d="M151.74400000000003,141.947 C153.387,163.214 153.387,173.183 153.387,184.065 H104.55799999999999 C104.55799999999999,181.69400000000002 104.60000000000002,179.526 104.642,177.327 C104.774,170.49200000000002 104.91199999999998,163.365 103.81299999999999,148.971 C102.36099999999999,127.899 93.356,123.21600000000001 76.798,123.21600000000001 H62.127999999999986 H0 V84.87599999999998 H79.12200000000001 C100.03699999999998,84.87599999999998 110.49400000000003,78.464 110.49400000000003,61.488999999999976 C110.49400000000003,46.56299999999999 100.03699999999998,37.516999999999996 79.12200000000001,37.516999999999996 H0 V0 H87.83600000000001 C135.18599999999998,0 158.716,22.536 158.716,58.535000000000025 C158.716,85.46100000000001 142.15800000000002,103.02100000000002 119.79000000000002,105.94799999999998 C138.67200000000003,109.75299999999999 149.70999999999998,120.582 151.74400000000003,141.947 z" fill="#121212" id="svg_2" class=""/><path d="M0,184.065 V155.483 H51.629999999999995 C60.25400000000002,155.483 62.125999999999976,161.92899999999997 62.125999999999976,165.772 V184.065 H0 z" fill="#121212" id="svg_3" class=""/><path d="M740.943,55.524 H692.548 L670.523,86.47399999999999 L649.079,55.524 H597.206 L643.862,119.46699999999998 L593.148,185.745 H641.544 L667.336,150.416 L693.127,185.745 H745 L693.996,117.423 L740.943,55.524 z" fill="#121212" id="svg_4" class=""/><path d="M436.111,77.10500000000002 C430.60400000000004,61.922000000000025 418.72299999999996,51.411 395.82899999999995,51.411 C376.413,51.411 362.50300000000004,60.17099999999999 355.548,74.47699999999998 V54.91500000000002 H308.602 V185.135 H355.548 V121.19299999999998 C355.548,101.63099999999997 361.054,88.78399999999999 376.413,88.78399999999999 C390.61300000000006,88.78399999999999 394.091,98.12700000000001 394.091,115.93799999999999 V185.135 H441.03700000000003 V121.19299999999998 C441.03700000000003,101.63099999999997 446.25300000000004,88.78399999999999 461.90200000000004,88.78399999999999 C476.102,88.78399999999999 479.28999999999996,98.12700000000001 479.28999999999996,115.93799999999999 V185.135 H526.236 V103.38299999999998 C526.236,76.22899999999998 515.804,51.411 480.159,51.411 C458.42499999999995,51.411 443.06600000000003,62.50599999999997 436.111,77.10500000000002 z" fill="#121212" id="svg_5" class=""/><path d="M259.716,134.599 C255.36900000000003,144.81799999999998 247.255,149.197 234.50400000000002,149.197 C220.30399999999997,149.197 208.712,141.606 207.553,125.54700000000003 H298.25800000000004 V112.40899999999999 C298.25800000000004,77.07999999999998 275.365,47.298 232.185,47.298 C191.904,47.298 161.76600000000002,76.78800000000001 161.76600000000002,117.95600000000002 C161.76600000000002,159.416 191.325,184.526 232.765,184.526 C266.961,184.526 290.72400000000005,167.88400000000001 297.389,138.10199999999998 L259.716,134.599 zM208.13299999999998,102.77300000000002 C209.87099999999998,90.50999999999999 216.53699999999998,81.16699999999997 231.606,81.16699999999997 C245.51600000000002,81.16699999999997 253.05,91.094 253.63,102.77300000000002 H208.13299999999998 z" fill="#121212" id="svg_6" class=""/><path d="M541.592,55.77999999999997 V186 H588.538 V55.77999999999997 H541.592 zM541.302,43.516999999999996 H588.828 V2.0560000000000116 H541.302 V43.516999999999996 z" fill="#121212" id="svg_7" class=""/></g></svg>